<svg xmlns="http://www.w3.org/2000/svg">


  <symbol id="arrow-dropdown-icon" viewBox="0 0 8 5">
    <path d="M3.29998 4.3L0.699975 1.7C0.383309 1.38333 0.312475 1.02083 0.487475 0.6125C0.662475 0.204167 0.974975 0 1.42498 0H6.57498C7.02498 0 7.33747 0.204167 7.51248 0.6125C7.68748 1.02083 7.61664 1.38333 7.29997 1.7L4.69998 4.3C4.59998 4.4 4.49164 4.475 4.37498 4.525C4.25831 4.575 4.13331 4.6 3.99998 4.6C3.86664 4.6 3.74164 4.575 3.62498 4.525C3.50831 4.475 3.39998 4.4 3.29998 4.3Z" fill="#2A3647"/>
  </symbol>


  <symbol id="height-prio-icon" viewBox="0 0 21 16">
    <path d="M19.653 15.255c-.235 0-.463-.075-.652-.214l-8.252-6.083-8.252 6.083a1.098 1.098 0 0 1-1.304-1.763l8.904-6.57a1.097 1.097 0 0 1 1.304 0l8.904 6.57a1.095 1.095 0 0 1-.652 1.977Z"/>
    <path d="M19.653 9.506c-.235 0-.463-.075-.652-.214L10.749 3.21 2.497 9.292A1.098 1.098 0 0 1 1.193 7.53L10.097.96a1.097 1.097 0 0 1 1.304 0l8.904 6.57a1.095 1.095 0 0 1-.652 1.977Z"/>
  </symbol>


  <symbol id="medium-prio-icon" viewBox="0 0 21 8">
    <path d="M19.153 7.725H1.344c-.29 0-.569-.116-.774-.323a1.108 1.108 0 0 1 0-1.561c.205-.207.484-.323.774-.323h17.809c.29 0 .569.116.775.323a1.108 1.108 0 0 1 0 1.561 1.092 1.092 0 0 1-.775.323ZM19.153 2.482H1.344c-.29 0-.569-.116-.774-.323a1.108 1.108 0 0 1 0-1.561c.205-.207.484-.324.774-.324h17.809c.29 0 .569.117.775.324a1.108 1.108 0 0 1 0 1.56 1.092 1.092 0 0 1-.775.324Z"/>
  </symbol>


  <symbol id="low-prio-icon" viewBox="0 0 21 16">
    <path d="M10.248 9.506c-.234 0-.463-.075-.651-.214L.693 2.722A1.096 1.096 0 1 1 1.997.96l8.252 6.082L18.498.96a1.097 1.097 0 0 1 1.305 1.763L10.9 9.293c-.19.138-.418.213-.652.213Z"/>
    <path d="M10.248 15.254c-.234 0-.463-.074-.651-.213L.693 8.47a1.096 1.096 0 1 1 1.304-1.763l8.252 6.083 8.25-6.083a1.097 1.097 0 0 1 1.305 1.763l-8.903 6.57c-.19.139-.418.214-.652.213Z"/>
  </symbol>


  <symbol id="plus-add-icon" viewBox="0 0 15 14" fill="none">
    <path d="M6.249 8h-5a.968.968 0 0 1-.713-.287A.968.968 0 0 1 .249 7c0-.283.095-.52.287-.713A.968.968 0 0 1 1.249 6h5V1c0-.283.095-.52.287-.713A.968.968 0 0 1 7.249 0c.283 0 .52.096.712.287.192.192.288.43.288.713v5h5c.283 0 .52.096.712.287.192.192.287.43.287.713s-.095.52-.287.713a.967.967 0 0 1-.713.287h-5v5c0 .283-.095.52-.287.713a.967.967 0 0 1-.712.287.967.967 0 0 1-.713-.287.968.968 0 0 1-.287-.713V8Z" fill="#2A3647"/>
  </symbol>


  <symbol id="hook-icon" viewBox="0 0 16 12">
    <path d="M5.8 9.15 14.273.675c.2-.2.438-.3.713-.3.275 0 .512.1.712.3.2.2.3.438.3.712 0 .276-.1.513-.3.713l-9.2 9.2c-.2.2-.433.3-.7.3a.96.96 0 0 1-.7-.3L.8 7a.93.93 0 0 1-.287-.713 1.02 1.02 0 0 1 .312-.712c.2-.2.438-.3.713-.3.275 0 .512.1.712.3L5.8 9.15Z"/>
  </symbol>


  <svg id="x-icon" viewBox="0 0 14 14" fill="none" xmlns="http://www.w3.org/2000/svg">
    <path d="M7.14434 8.40005L2.24434 13.3C2.061 13.4834 1.82767 13.575 1.54434 13.575C1.261 13.575 1.02767 13.4834 0.844336 13.3C0.661003 13.1167 0.569336 12.8834 0.569336 12.6C0.569336 12.3167 0.661003 12.0834 0.844336 11.9L5.74434 7.00005L0.844336 2.10005C0.661003 1.91672 0.569336 1.68338 0.569336 1.40005C0.569336 1.11672 0.661003 0.883382 0.844336 0.700049C1.02767 0.516715 1.261 0.425049 1.54434 0.425049C1.82767 0.425049 2.061 0.516715 2.24434 0.700049L7.14434 5.60005L12.0443 0.700049C12.2277 0.516715 12.461 0.425049 12.7443 0.425049C13.0277 0.425049 13.261 0.516715 13.4443 0.700049C13.6277 0.883382 13.7193 1.11672 13.7193 1.40005C13.7193 1.68338 13.6277 1.91672 13.4443 2.10005L8.54434 7.00005L13.4443 11.9C13.6277 12.0834 13.7193 12.3167 13.7193 12.6C13.7193 12.8834 13.6277 13.1167 13.4443 13.3C13.261 13.4834 13.0277 13.575 12.7443 13.575C12.461 13.575 12.2277 13.4834 12.0443 13.3L7.14434 8.40005Z" fill="#2A3647"/>
  </svg>


  <symbol id="calendar-icon" viewBox="0 0 19 20" fill="none">
    <path d="M11.748 16c-.7 0-1.291-.242-1.774-.725-.484-.483-.725-1.075-.725-1.775s.241-1.292.725-1.775c.483-.483 1.075-.725 1.774-.725.7 0 1.292.242 1.776.725.483.483.725 1.075.725 1.775s-.242 1.292-.726 1.775c-.483.483-1.075.725-1.774.725Zm-9.5 4c-.55 0-1.02-.196-1.412-.587A1.926 1.926 0 0 1 .249 18V4c0-.55.195-1.02.587-1.413A1.926 1.926 0 0 1 2.249 2h1V1c0-.283.095-.52.287-.713A.968.968 0 0 1 4.249 0c.283 0 .52.096.712.287.192.192.288.43.288.713v1h8V1c0-.283.095-.52.287-.713A.968.968 0 0 1 14.249 0c.283 0 .52.096.712.287.192.192.287.43.287.713v1h1c.55 0 1.021.196 1.413.587.392.392.587.863.587 1.413v14c0 .55-.195 1.02-.587 1.413a1.926 1.926 0 0 1-1.413.587h-14Zm0-2h14V8h-14v10Zm0-12h14V4h-14v2Z" fill="#2A3647"/>
  </symbol>


<symbol id="checkbox-checked-icon" viewBox="0 0 18 18" fill="none">
    <path d="M17 8v6a3 3 0 0 1-3 3H4a3 3 0 0 1-3-3V4a3 3 0 0 1 3-3h8" stroke="#fff" stroke-width="2" stroke-linecap="round"/>
    <path d="m5 9 4 4 8-11.5" stroke="#fff" stroke-width="2" stroke-linecap="round" stroke-linejoin="round"/>
</symbol>


  <symbol id="checkbox-unchecked-icon" viewBox="0 0 18 18" fill="none">
    <rect x="1" y="1" width="16" height="16" rx="3" stroke="#2A3647" stroke-width="2"/>
  </symbol>


  <symbol id="trashcan-delete-icon" viewBox="0 0 17 18">
    <path d="M3.145 18c-.55 0-1.021-.196-1.413-.587A1.926 1.926 0 0 1 1.145 16V3a.968.968 0 0 1-.713-.288A.968.968 0 0 1 .145 2c0-.283.095-.52.287-.712A.968.968 0 0 1 1.145 1h4c0-.283.095-.52.287-.713A.968.968 0 0 1 6.145 0h4c.283 0 .52.096.712.287.192.192.288.43.288.713h4c.283 0 .52.096.712.288.192.191.288.429.288.712s-.096.52-.288.712a.967.967 0 0 1-.712.288v13c0 .55-.196 1.02-.588 1.413a1.926 1.926 0 0 1-1.412.587h-10Zm0-15v13h10V3h-10Zm2 10c0 .283.095.52.287.713.192.191.43.287.713.287s.52-.096.712-.287A.968.968 0 0 0 7.145 13V6a.968.968 0 0 0-.288-.713A.968.968 0 0 0 6.145 5a.968.968 0 0 0-.713.287.968.968 0 0 0-.287.713v7Zm4 0c0 .283.095.52.287.713.192.191.43.287.713.287s.52-.096.712-.287a.968.968 0 0 0 .288-.713V6a.967.967 0 0 0-.288-.713.967.967 0 0 0-.712-.287.968.968 0 0 0-.713.287.968.968 0 0 0-.287.713v7Z"/>
  </symbol>


  <svg id="edit-pen" viewBox="0 0 19 19">
    <path d="M2.14453 17H3.54453L12.1695 8.375L10.7695 6.975L2.14453 15.6V17ZM16.4445 6.925L12.1945 2.725L13.5945 1.325C13.9779 0.941667 14.4487 0.75 15.007 0.75C15.5654 0.75 16.0362 0.941667 16.4195 1.325L17.8195 2.725C18.2029 3.10833 18.4029 3.57083 18.4195 4.1125C18.4362 4.65417 18.2529 5.11667 17.8695 5.5L16.4445 6.925ZM14.9945 8.4L4.39453 19H0.144531V14.75L10.7445 4.15L14.9945 8.4Z"/>
  </svg>


  <svg id="mini-seperator" viewBox="0 0 2 24">
    <path d="M1.14453 0V24" stroke="#D1D1D1"/>
  </svg>


  <svg id="mini-seperator-strong" fill="none">
    <path d="M1.14453 0V24" stroke="#A8A8A8"/>
  </svg>


</svg>